# xmcd CD database file
#
# Track frame offsets:
#	150
#	23027
#	51780
#	69275
#	93372
#	106535
#	130845
#	156970
#	181830
#	200717
#	232100
#	257212
#
# Disc length: 3759 seconds
#
# Revision: 0
# Processed by: cddbd v1.5.1PL0 Copyright (c) Steve Scherf et al.
# Submitted via: CDex 1.51
#
DISCID=9b0ead0c
DTITLE=Acker Bilk and Ken Colyer - Together Again
DYEAR=1985
DGENRE=Jazz
TTITLE0=Down Among The Sheltering Palms
TTITLE1=Corrine Corrina (Take 2)
TTITLE2=It Looks Like A Big Time Tonight
TTITLE3=Sweet Substitute (Take 2)
TTITLE4=If I Ever Case To Love
TTITLE5=Clarinet Marmalade
TTITLE6=Carolina Moon
TTITLE7=Mabel's Dream
TTITLE8=Liza
TTITLE9=Lily Of The Valley
TTITLE10=Corrine Corrina (Take 1)
TTITLE11=Sweet Substitute (Take 1)
EXTD=YEAR: 1985
EXTT0=
EXTT1=
EXTT2=
EXTT3=
EXTT4=
EXTT5=
EXTT6=
EXTT7=
EXTT8=
EXTT9=
EXTT10=
EXTT11=
PLAYORDER=
